<?xml version="1.0" encoding="utf-8"?>
<!-- Generator: Adobe Illustrator 12.0.0, SVG Export Plug-In . SVG Version: 6.00 Build 51448)  -->
<!DOCTYPE svg PUBLIC "-//W3C//DTD SVG 1.1//EN" "http://www.w3.org/Graphics/SVG/1.1/DTD/svg11.dtd" [
	<!ENTITY ns_svg "http://www.w3.org/2000/svg">
	<!ENTITY ns_xlink "http://www.w3.org/1999/xlink">
]>
<svg  version="1.1" id="レイヤー_1" xmlns="&ns_svg;" xmlns:xlink="&ns_xlink;" width="183.433" height="117.868"
	 viewBox="0 0 183.433 117.868" overflow="visible" enable-background="new 0 0 183.433 117.868" xml:space="preserve">
<g>
	
		<path fill-rule="evenodd" clip-rule="evenodd" fill="#FFFFFF" stroke="#000000" stroke-width="3.75" stroke-linecap="round" stroke-linejoin="round" d="
		M32.597,109.558c0-3.563,2.893-6.445,6.457-6.445s6.446,2.883,6.446,6.445c0,3.555-2.882,6.436-6.446,6.436
		S32.597,113.112,32.597,109.558z"/>
	
		<path fill-rule="evenodd" clip-rule="evenodd" fill="#FFFFFF" stroke="#000000" stroke-width="3.75" stroke-linecap="round" stroke-linejoin="round" d="
		M137.152,109.558c0-3.563,2.893-6.445,6.457-6.445s6.457,2.883,6.457,6.445c0,3.555-2.893,6.436-6.457,6.436
		S137.152,113.112,137.152,109.558z"/>
	<g>
		<g>
			
				<path fill-rule="evenodd" clip-rule="evenodd" fill="#FFFFFF" stroke="#000000" stroke-width="3" stroke-linecap="round" stroke-linejoin="round" d="
				M61.769,14.936c1.628-8.228,2.738-19.481,40.018-9.537c37.5,10,50.424,39.27,48.279,47.432
				c-2.156,8.173-4.148-2.651-41.711-12.76C70.999,30.028,60.218,22.78,61.769,14.936z"/>
			
				<path fill-rule="evenodd" clip-rule="evenodd" stroke="#000000" stroke-width="1.5" stroke-linecap="round" stroke-linejoin="round" d="
				M18.913,57.99c0.946-19.767,11.693-44.066,59.894-41.503c48.535,2.574,81.578,36.41,81.578,56.198
				c0,19.79-19.91,21.946-68.156,20.372C37.239,91.255,18.143,74.237,18.913,57.99z"/>
			
				<path fill-rule="evenodd" clip-rule="evenodd" fill="#FFFFFF" stroke="#000000" stroke-width="0.75" stroke-linecap="round" stroke-linejoin="round" d="
				M34.148,41.49c0-6.544,5.313-11.857,11.869-11.857c6.567,0,11.88,5.313,11.88,11.857c0,6.556-5.313,11.858-11.88,11.858
				C39.461,53.349,34.148,48.046,34.148,41.49z"/>
			
				<path fill-rule="evenodd" clip-rule="evenodd" stroke="#000000" stroke-width="0.75" stroke-linecap="round" stroke-linejoin="round" d="
				M38.02,39.433c0-3.278,2.651-5.928,5.94-5.928c3.278,0,5.928,2.65,5.928,5.928c0,3.268-2.65,5.929-5.928,5.929
				C40.671,45.362,38.02,42.701,38.02,39.433z"/>
		</g>
		
			<path fill-rule="evenodd" clip-rule="evenodd" fill="#FFFFFF" stroke="#000000" stroke-width="3.75" stroke-linecap="round" stroke-linejoin="round" d="
			M8.826,63.072l18.612,44.265c0.957,2.42,1.979,2.992,5.356,2.992h58.916h58.928c3.377,0,4.4-0.572,5.355-2.992l18.613-44.265
			c2.111-4.972,9.68-3.916,5.918-6.633l-88.814,0.132L2.908,56.439C-0.854,59.156,6.714,58.101,8.826,63.072z"/>
	</g>
</g>
</svg>
